<?xml version="1.0" encoding="UTF-8" standalone="no"?><!-- Generator: Gravit.io --><svg xmlns="http://www.w3.org/2000/svg" xmlns:xlink="http://www.w3.org/1999/xlink" style="isolation:isolate" viewBox="0 0 50 50" width="50pt" height="50pt"><defs><clipPath id="_clipPath_4SplKuoN4aZmwklSxHZuYzet6Hymmh4v"><rect width="50" height="50"/></clipPath></defs><g clip-path="url(#_clipPath_4SplKuoN4aZmwklSxHZuYzet6Hymmh4v)"><g><path d=" M 0 0 L 50 0 L 50 50 L 0 50 L 0 0 Z " fill="none"/><path d=" M 0 31.25 L 4.167 31.25 L 4.167 18.75 L 0 18.75 L 0 31.25 Z  M 6.25 35.417 L 10.417 35.417 L 10.417 14.583 L 6.25 14.583 L 6.25 35.417 Z  M 45.833 18.75 L 45.833 31.25 L 50 31.25 L 50 18.75 L 45.833 18.75 Z  M 39.583 35.417 L 43.75 35.417 L 43.75 14.583 L 39.583 14.583 L 39.583 35.417 Z  M 34.375 6.25 L 15.625 6.25 C 13.896 6.25 12.5 7.646 12.5 9.375 L 12.5 40.625 C 12.5 42.354 13.896 43.75 15.625 43.75 L 34.375 43.75 C 36.104 43.75 37.5 42.354 37.5 40.625 L 37.5 9.375 C 37.5 7.646 36.104 6.25 34.375 6.25 Z  M 33.333 39.583 L 16.667 39.583 L 16.667 10.417 L 33.333 10.417 L 33.333 39.583 Z " fill="rgb(255,255,255)"/></g><line x1="0" y1="0" x2="50" y2="50" vector-effect="non-scaling-stroke" stroke-width="5" stroke="rgb(255,255,255)" stroke-linejoin="miter" stroke-linecap="square" stroke-miterlimit="3"/></g></svg>